<svg width="40" height="40" viewBox="0 0 40 40" fill="none" xmlns="http://www.w3.org/2000/svg">
<path d="M6.66699 31.6667V28.3334H10.0003V16.6667C10.0003 14.3612 10.6948 12.3195 12.0837 10.5417C13.4725 8.73615 15.2781 7.55559 17.5003 7.00004V5.83337C17.5003 5.13893 17.7364 4.5556 18.2087 4.08337C18.7087 3.58337 19.3059 3.33337 20.0003 3.33337C20.6948 3.33337 21.2781 3.58337 21.7503 4.08337C22.2503 4.5556 22.5003 5.13893 22.5003 5.83337V7.00004C24.7225 7.55559 26.5281 8.73615 27.917 10.5417C29.3059 12.3195 30.0003 14.3612 30.0003 16.6667V28.3334H33.3337V31.6667H6.66699ZM20.0003 36.6667C19.0837 36.6667 18.292 36.3473 17.6253 35.7084C16.9864 35.0417 16.667 34.25 16.667 33.3334H23.3337C23.3337 34.25 23.0003 35.0417 22.3337 35.7084C21.6948 36.3473 20.917 36.6667 20.0003 36.6667ZM13.3337 28.3334H26.667V16.6667C26.667 14.8334 26.0142 13.2639 24.7087 11.9584C23.4031 10.6528 21.8337 10 20.0003 10C18.167 10 16.5975 10.6528 15.292 11.9584C13.9864 13.2639 13.3337 14.8334 13.3337 16.6667V28.3334Z" fill="#1D1B20"/>
</svg>
