<svg width="48" height="48" viewBox="0 0 48 48" fill="none" xmlns="http://www.w3.org/2000/svg">
<path d="M10.7998 38.4C11.7221 37.367 16.0419 32.6134 17.3078 32.6134H30.6926C32.527 32.6134 36.2717 36.5538 37.1998 37.9428M43.1998 24C43.1998 34.6039 34.6037 43.2 23.9998 43.2C13.3959 43.2 4.7998 34.6039 4.7998 24C4.7998 13.3962 13.3959 4.80005 23.9998 4.80005C34.6037 4.80005 43.1998 13.3962 43.1998 24ZM30.8775 17.456C30.8775 13.7929 27.7852 10.8 24.0004 10.8C20.2156 10.8 17.1233 13.7929 17.1233 17.456C17.1233 21.119 20.2156 24.1119 24.0004 24.1119C27.7851 24.1119 30.8775 21.119 30.8775 17.456Z" stroke="currentColor" stroke-width="3"/>
</svg>
